inDegrees=no
num_controls=7
num_derivatives=13
num_iterations=66
num_multipliers=7
num_parameters=0
num_slacks=7
num_states=26
objective=0.509603
objective_accelerations=0.041015
objective_balance=0.002919
objective_effort=0.030183
objective_height=0.323279
objective_ligament=0.112206
solver_duration=961.827392
status=Solve_Succeeded
success=true
DataType=double
version=3
OpenSimVersion=4.5
endheader
time	/jointset/ground_pelvis/pelvis_tilt/value	/jointset/ground_pelvis/pelvis_tx/value	/jointset/ground_pelvis/pelvis_ty/value	/jointset/hip_l/hip_flexion_l/value	/jointset/hip_l/hip_adduction_l/value	/jointset/hip_l/hip_rotation_l/value	/jointset/back/lumbar_extension/value	/jointset/patellofemoral_l/patellar_flexion_l/value	/jointset/knee_l/knee_flexion_l/value	/jointset/knee_l/knee_adduction_l/value	/jointset/knee_l/knee_rotation_l/value	/jointset/ankle_l/ankle_angle_l/value	/jointset/subtalar_l/subtalar_angle_l/value	/jointset/ground_pelvis/pelvis_tilt/speed	/jointset/ground_pelvis/pelvis_tx/speed	/jointset/ground_pelvis/pelvis_ty/speed	/jointset/hip_l/hip_flexion_l/speed	/jointset/hip_l/hip_adduction_l/speed	/jointset/hip_l/hip_rotation_l/speed	/jointset/back/lumbar_extension/speed	/jointset/patellofemoral_l/patellar_flexion_l/speed	/jointset/knee_l/knee_flexion_l/speed	/jointset/knee_l/knee_adduction_l/speed	/jointset/knee_l/knee_rotation_l/speed	/jointset/ankle_l/ankle_angle_l/speed	/jointset/subtalar_l/subtalar_angle_l/speed	/forceset/tau_hip_flexion_l	/forceset/tau_hip_adduction_l	/forceset/tau_hip_rotation_l	/forceset/tau_knee_flexion_l	/forceset/tau_ankle_angle_l	/forceset/tau_subtalar_angle_l	/forceset/tau_lumbar_extension	lambda_cid13_p0	lambda_cid13_p1	lambda_cid13_p2	lambda_cid13_p3	lambda_cid13_p4	lambda_cid13_p5	lambda_cid14_p0	/jointset/ground_pelvis/pelvis_tilt/accel	/jointset/ground_pelvis/pelvis_tx/accel	/jointset/ground_pelvis/pelvis_ty/accel	/jointset/hip_l/hip_flexion_l/accel	/jointset/hip_l/hip_adduction_l/accel	/jointset/hip_l/hip_rotation_l/accel	/jointset/back/lumbar_extension/accel	/jointset/patellofemoral_l/patellar_flexion_l/accel	/jointset/knee_l/knee_flexion_l/accel	/jointset/knee_l/knee_adduction_l/accel	/jointset/knee_l/knee_rotation_l/accel	/jointset/ankle_l/ankle_angle_l/accel	/jointset/subtalar_l/subtalar_angle_l/accel	gamma_cid13_p0	gamma_cid13_p1	gamma_cid13_p2	gamma_cid13_p3	gamma_cid13_p4	gamma_cid13_p5	gamma_cid14_p0
1	-0.1341482815445075	-0.05099641450044012	0.7282654471471047	1.210499408563559	-0.333688481353962	0.02778656162772897	-0.9599305141203835	1.229500667583699	1.229500667583698	-0.09153735651398122	-0.1744235352343156	0.2380931095862327	0.04095125341282991	0.1162899816763992	0.02112414582612347	0.06648160868742309	-0.2990150551233032	0.001731431997972436	-0.06920069913277009	-0.001572619349608459	-0.1712376479751316	-0.1712376479751336	0.007043475759218264	0.005810085394355579	0.002824352438372539	0.004525897598699371	-0.3916284468373283	0.08274789567744728	-0.003883341892035392	-0.290983152286855	0.01488219565105053	0.002525035517392939	0.4337328448366627	-46.39098262463721	9.355719864994803	-4.606848960638436	13.36099697140073	-789.429850925134	-26.4948217024312	-0.6492805462286206	1.044031611641896	0.06691264218142202	1.301075873526669	-4.647598258154352	0.1228104932353684	-1.776360332191383	0.3037867998718151	-4.454206535964858	-4.454206535964852	0.247096829358101	0.1580703798331372	-1.10784963286226	-0.2622351640388744	-1.047958584893962e-08	-4.951160350261981e-10	6.105708265524631e-08	7.663404216508378e-09	-2.542026183997242e-08	6.47535578749346e-08	-1.316589319956632e-08
1.01	-0.1329340654859309	-0.05078176534801566	0.7289949677975136	1.207278533971524	-0.3336643469117254	0.02700536171258562	-0.959929462484149	1.227566319511223	1.227566319511228	-0.09145299252504943	-0.1743568434476142	0.2380661874564607	0.04098436126820292	0.1265105370646777	0.02181386732540397	0.0793992627060303	-0.345076202918759	0.00310402053055415	-0.08702078124307555	0.001886300825924276	-0.2155932138349552	-0.2155932138349593	0.00983230112624277	0.007524097950174899	-0.008206834621411082	0.002106886189216888	-0.3910814684845477	0.08302050510989067	-0.00393493409555081	-0.2904163298385152	0.01466587550255802	0.002597457180930017	0.4336764440448223	-46.42558537878205	9.320757273730617	-4.590345307718049	13.22897045570906	-789.0395447374707	-26.48729166175172	-0.673709075002858	1.004661977991931	0.07123070210122104	1.28361591525316	-4.57282620319391	0.1457606468709544	-1.782072926214407	0.382447777386065	-4.420415017655122	-4.420415017655385	0.2952137316897981	0.1774593146076681	-1.100461943670809	-0.2300602966473638	-1.376946424864024e-08	-1.132302699256572e-08	8.416411197951744e-08	6.998971965807281e-09	-2.721935314127452e-08	7.14305422323737e-08	-1.83996943833699e-08
1.02	-0.1316189249783725	-0.05055997322093852	0.7298529661379544	1.20359955726897	-0.3336262310614476	0.02604651282121522	-0.9598907210168725	1.225189579098809	1.225189579098808	-0.09134065261413324	-0.1742731330111367	0.2379290117158615	0.04099361377603037	0.1364748714758455	0.02255274075666039	0.09217714669379089	-0.3906354772322981	0.004527713607191196	-0.1047304943839731	0.005965347041178615	-0.2597161159613446	-0.2597161159613511	0.01263866014587913	0.009213815352052344	-0.01922636972657659	-0.0002451719100424082	-0.3905344901316141	0.08329311454237251	-0.003986526298797297	-0.2898495073901597	0.01444955535405179	0.002669878844506213	0.4336200432531099	-46.471838820557	9.287705262552171	-4.573998619188989	13.14259546046349	-788.807851337883	-26.47095577759422	-0.7043015959284411	0.9927874162198114	0.07674302857655342	1.273121867357338	-4.547223561771044	0.133031402046409	-1.754286538309833	0.4278120078171569	-4.407673789278047	-4.407673789278098	0.2506035598804554	0.1532113490447032	-1.105519241938731	-0.2488445019943046	-1.813542265317488e-08	-2.086358813172125e-08	1.023413090790803e-07	9.915060161410983e-09	-3.27511562765281e-08	7.380050406734398e-08	-2.213552688477391e-08
1.03	-0.1302052564727971	-0.05033048486159206	0.7308380654770755	1.199467212694487	-0.3335736344506348	0.02491118931605435	-0.959807975787774	1.222372711666647	1.222372711666647	-0.09120028449367436	-0.1741726944920219	0.2376817502254482	0.04097968736653787	0.1462314922330779	0.02335930390599934	0.1048214550072713	-0.4357770004875221	0.006000358685719212	-0.1223126068839849	0.01069994063065931	-0.3036248961108521	-0.3036248961108592	0.0154311136851934	0.01086593781282017	-0.03021858772539408	-0.002526345485891856	-0.3901865534037328	0.08369212907838397	-0.004058581850046322	-0.288990321581969	0.01418099707336657	0.002782043291291663	0.4338368231366959	-46.52904820545707	9.232866647973259	-4.546817101920584	12.95500233201615	-788.5893503159382	-26.45600732722981	-0.7414108443210848	0.9629969066855757	0.08477146844382456	1.256887696891527	-4.489153977198386	0.155682848775966	-1.756956960436749	0.5137193119498976	-4.377603779977425	-4.377603779977444	0.2929759995747621	0.1700461163424593	-1.094973252300787	-0.2156983692261481	-2.251236146592211e-08	-3.03910130482402e-08	1.20468201768187e-07	1.286768427993618e-08	-3.832104830804651e-08	7.612651669290128e-08	-2.585607399145956e-08
